<svg width="22" height="25" viewBox="0 0 22 25" fill="none" xmlns="http://www.w3.org/2000/svg">
<path fill-rule="evenodd" clip-rule="evenodd" d="M21.7091 13.348C21.7091 17.2855 20.8093 20.2201 19.0106 22.1323C17.2114 24.0441 14.4319 25 10.6848 25C7.18362 25 4.52757 24.0441 2.71663 22.1323C0.904791 20.2206 0 17.3371 0 13.4823V0.549386C0.000358172 0.40379 0.0583547 0.264259 0.161307 0.161307C0.264259 0.0583548 0.40379 0.000358172 0.549386 0L6.89785 0C7.04337 0.000595193 7.18276 0.0586679 7.28566 0.161569C7.38856 0.26447 7.44664 0.403863 7.44723 0.549386V13.7649C7.44723 15.3389 7.73843 16.5503 8.33122 17.4049C8.77489 17.9932 9.40755 18.4108 10.1229 18.5876C10.8382 18.7644 11.5926 18.6896 12.2592 18.3757C12.7012 18.1678 13.0898 17.8617 13.3955 17.4809C13.9752 16.6792 14.2637 15.4977 14.2619 13.9359V11.4611H21.7091V13.348V13.348Z" fill="#143676"/>
<path fill-rule="evenodd" clip-rule="evenodd" d="M21.1339 10.0156H14.2627V0.575612C14.2631 0.42306 14.3238 0.276859 14.4317 0.168988C14.5396 0.0611179 14.6858 0.000358244 14.8383 0L15.867 0C15.8682 1.54798 16.4841 3.03211 17.5794 4.12605C18.6748 5.22033 20.1598 5.83507 21.7081 5.83525H21.7099V10.0156H21.1339Z" fill="#143676"/>
<path fill-rule="evenodd" clip-rule="evenodd" d="M17.3303 0H21.1344C21.2869 0.000476986 21.4331 0.0612748 21.5409 0.16912C21.6488 0.276965 21.7096 0.423097 21.71 0.575612V4.38288C20.5488 4.38264 19.4351 3.92132 18.6139 3.10031C17.7926 2.27929 17.3309 1.16579 17.3303 0.00452169V0Z" fill="#F4821F"/>
</svg>
