<svg width="177" height="33" viewBox="0 0 177 33" fill="none" xmlns="http://www.w3.org/2000/svg">
<path d="M15.3078 16.0664L11.5151 3.86145L7.68822 16.0664H15.3078ZM16.48 19.7554H6.51602L4.75773 25.375H0L7.8606 1.24125H15.2733L23.1684 25.375H18.2383L16.48 19.7554Z" fill="black"/>
<path d="M25.375 25.375H29.9951V0.000111716H25.375V25.375Z" fill="black"/>
<path d="M42.3015 22.2035C45.2323 22.2035 47.025 19.7902 47.025 16.3425C47.025 12.8949 45.2323 10.4813 42.3015 10.4813C39.4055 10.4813 37.6127 12.8949 37.6127 16.3425C37.6127 19.7902 39.4055 22.2035 42.3015 22.2035ZM42.3015 6.89604C47.9559 6.89604 51.5759 10.4813 51.5759 16.3425C51.5759 22.2035 47.9559 25.7891 42.3015 25.7891C36.6473 25.7891 33.0273 22.2035 33.0273 16.3425C33.0273 10.4813 36.6473 6.89604 42.3015 6.89604Z" fill="black"/>
<path d="M62.9171 22.2041C65.7439 22.2041 67.468 19.8252 67.468 16.3431C67.468 12.8607 65.7439 10.4818 62.9171 10.4818C60.0553 10.4818 58.3318 12.8607 58.3318 16.3431C58.3318 19.8252 60.0553 22.2041 62.9171 22.2041ZM61.5033 6.8966C64.0204 6.8966 66.3299 8.13774 67.6059 10.62V7.31031H71.8809V32.2715H67.2608V22.5147C65.951 24.6864 63.8135 25.7896 61.4691 25.7896C57.0561 25.7896 53.7461 22.3075 53.7461 16.3431C53.7461 10.3787 57.0561 6.8966 61.5033 6.8966Z" fill="black"/>
<path d="M82.5002 22.5828C85.3962 22.5828 87.2927 20.4797 87.2927 17.8595V17.0666L83.1556 17.4803C80.9143 17.6871 79.5697 18.5487 79.5697 20.2039C79.5697 21.583 80.5006 22.5828 82.5002 22.5828ZM82.5692 14.7222L87.2927 14.2392V13.3431C87.2927 11.4814 86.2237 10.171 83.8103 10.171C81.8452 10.171 80.3282 11.0329 80.1903 12.8946H75.9842C76.1221 8.41269 79.7421 6.89572 83.8103 6.89572C88.9131 6.89572 91.9123 9.30906 91.9123 14.3081V25.3753H87.6027V22.1001C86.4308 24.3755 84.1896 25.7891 81.0177 25.7891C76.9495 25.7891 74.9844 23.4792 74.9844 20.4452C74.9844 16.8252 77.8804 15.17 82.5692 14.7222Z" fill="black"/>
<path d="M111.289 18.2729C111.289 16.2388 109.944 14.8939 107.013 14.8939H101.049V21.6171H106.772C109.875 21.6171 111.289 20.3411 111.289 18.2729ZM101.049 11.3087H106.566C109.22 11.3087 110.565 10.033 110.565 8.10236C110.565 6.20584 109.22 4.99917 106.497 4.99917H101.049V11.3087ZM116.115 18.9279C116.115 23.3064 112.116 25.375 107.221 25.375H96.2227V1.24094H106.979C111.599 1.24094 115.392 2.93028 115.392 7.30909C115.392 10.7912 113.013 12.6874 108.255 12.9632C112.633 13.2045 116.115 14.8939 116.115 18.9279Z" fill="#1A99FF"/>
<path d="M125.768 22.5828C128.664 22.5828 130.56 20.4797 130.56 17.8595V17.0666L126.423 17.4803C124.182 17.6871 122.837 18.5487 122.837 20.2039C122.837 21.583 123.768 22.5828 125.768 22.5828ZM125.837 14.7222L130.56 14.2392V13.3431C130.56 11.4814 129.491 10.171 127.078 10.171C125.113 10.171 123.596 11.0329 123.458 12.8946H119.252C119.39 8.41269 123.01 6.89572 127.078 6.89572C132.181 6.89572 135.18 9.30906 135.18 14.3081V25.3753H130.87V22.1001C129.698 24.3755 127.457 25.7891 124.285 25.7891C120.217 25.7891 118.252 23.4792 118.252 20.4452C118.252 16.8252 121.148 15.17 125.837 14.7222Z" fill="#1A99FF"/>
<path d="M138.904 7.30908H143.214V10.4809C144.386 8.13651 146.593 6.89537 149.523 6.89537C153.661 6.89537 155.764 9.34319 155.764 13.8599V25.375H151.178V15.2731C151.178 12.3429 150.247 10.6878 147.73 10.6878C144.938 10.6878 143.524 12.7563 143.524 15.8592V25.375H138.904V7.30908Z" fill="#1A99FF"/>
<path d="M171.312 25.375L165.761 18.066H164.106V25.375H159.486V0.000111716H164.106V14.4802H165.796L171.036 7.30909H176.483L169.071 15.894L177.001 25.375H171.312Z" fill="#1A99FF"/>
</svg>
