<svg width="205" height="34" viewBox="0 0 205 34" fill="none" xmlns="http://www.w3.org/2000/svg">
<path d="M13.5154 3.91967L27.0308 11.4883V0.000800373H0V11.4883L13.5154 3.91967Z" fill="#1A99FF"/>
<path d="M13.5154 6.89362L0 14.4622V27.0312H27.0308V14.4622L13.5154 6.89362Z" fill="#1A99FF"/>
<path d="M52.873 18.2733L49.3046 6.79029L45.7041 18.2733H52.873ZM53.9759 21.744H44.6013L42.947 27.0312H38.4707L45.8663 4.32508H52.8406L60.2686 27.0312H55.6301L53.9759 21.744Z" fill="white"/>
<path d="M62.3438 27.0312H66.6906V3.15736H62.3438V27.0312Z" fill="white"/>
<path d="M78.2705 24.0465C81.0279 24.0465 82.7146 21.7759 82.7146 18.5322C82.7146 15.2885 81.0279 13.0176 78.2705 13.0176C75.5457 13.0176 73.859 15.2885 73.859 18.5322C73.859 21.7759 75.5457 24.0465 78.2705 24.0465ZM78.2705 9.64448C83.5904 9.64448 86.9963 13.0176 86.9963 18.5322C86.9963 24.0465 83.5904 27.4199 78.2705 27.4199C72.9508 27.4199 69.5449 24.0465 69.5449 18.5322C69.5449 13.0176 72.9508 9.64448 78.2705 9.64448Z" fill="white"/>
<path d="M97.6676 24.0457C100.327 24.0457 101.949 21.8075 101.949 18.5314C101.949 15.255 100.327 13.0168 97.6676 13.0168C94.975 13.0168 93.3535 15.255 93.3535 18.5314C93.3535 21.8075 94.975 24.0457 97.6676 24.0457ZM96.3374 9.64369C98.7056 9.64369 100.879 10.8114 102.079 13.1469V10.0329H106.101V33.5176H101.754V24.3379C100.522 26.3812 98.511 27.4191 96.3052 27.4191C92.1533 27.4191 89.0391 24.143 89.0391 18.5314C89.0391 12.9198 92.1533 9.64369 96.3374 9.64369Z" fill="white"/>
<path d="M116.091 24.4033C118.815 24.4033 120.6 22.4246 120.6 19.9594V19.2134L116.707 19.6026C114.599 19.7972 113.334 20.6079 113.334 22.1651C113.334 23.4626 114.209 24.4033 116.091 24.4033ZM116.156 17.0077L120.6 16.5532V15.7102C120.6 13.9586 119.594 12.7257 117.323 12.7257C115.474 12.7257 114.047 13.5366 113.918 15.2882H109.96C110.09 11.0714 113.496 9.64417 117.323 9.64417C122.124 9.64417 124.946 11.9148 124.946 16.6181V27.0307H120.891V23.9492C119.789 26.09 117.68 27.4199 114.696 27.4199C110.868 27.4199 109.02 25.2466 109.02 22.3922C109.02 18.9863 111.744 17.429 116.156 17.0077Z" fill="white"/>
<path d="M143.175 20.3492C143.175 18.4355 141.91 17.1701 139.152 17.1701H133.541V23.4956H138.926C141.845 23.4956 143.175 22.2952 143.175 20.3492ZM133.541 13.797H138.731C141.229 13.797 142.494 12.5968 142.494 10.7803C142.494 8.996 141.229 7.86071 138.666 7.86071H133.541V13.797ZM147.716 20.9655C147.716 25.085 143.953 27.0312 139.347 27.0312H129V4.32479H139.12C143.467 4.32479 147.035 5.9142 147.035 10.034C147.035 13.3101 144.797 15.0941 140.32 15.3536C144.44 15.5807 147.716 17.1701 147.716 20.9655Z" fill="#1A99FF"/>
<path d="M156.798 24.4033C159.523 24.4033 161.307 22.4246 161.307 19.9594V19.2134L157.414 19.6026C155.306 19.7972 154.041 20.6079 154.041 22.1651C154.041 23.4626 154.916 24.4033 156.798 24.4033ZM156.863 17.0077L161.307 16.5532V15.7102C161.307 13.9586 160.301 12.7257 158.03 12.7257C156.182 12.7257 154.754 13.5366 154.625 15.2882H150.667C150.797 11.0714 154.203 9.64417 158.03 9.64417C162.831 9.64417 165.653 11.9148 165.653 16.6181V27.0307H161.598V23.9492C160.496 26.09 158.387 27.4199 155.403 27.4199C151.575 27.4199 149.727 25.2466 149.727 22.3922C149.727 18.9863 152.451 17.429 156.863 17.0077Z" fill="#1A99FF"/>
<path d="M169.156 10.034H173.211V13.0182C174.314 10.8125 176.39 9.64474 179.147 9.64474C183.04 9.64474 185.018 11.9478 185.018 16.1973V27.0312H180.704V17.5269C180.704 14.7701 179.828 13.2128 177.46 13.2128C174.833 13.2128 173.503 15.159 173.503 18.0784V27.0312H169.156V10.034Z" fill="#1A99FF"/>
<path d="M199.648 27.0312L194.425 20.1546H192.868V27.0312H188.521V3.15736H192.868V16.7809H194.458L199.388 10.034H204.513L197.539 18.1111L205 27.0312H199.648Z" fill="#1A99FF"/>
</svg>
